<?xml version="1.0" encoding="UTF-8"?>
<svg width="456" height="456" data-name="Lager 1" version="1.1" viewBox="0 0 222.7 89.41" xmlns="http://www.w3.org/2000/svg">
 <defs>
  <style>.cls-1{fill:#d30535;}
            .cls-2{fill:#fff;}</style>
 </defs>
 <rect class="cls-1" y="-66.313" width="222.7" height="222.38" stroke-width="1.5771"/>
 <path class="cls-2" d="M181.91,52.75c-6.23,0-10.66-3.54-10.66-8.33,0-4.52,4.34-8.46,11-8.46a15.54,15.54,0,0,1,6.29,1.33V34a22.15,22.15,0,0,0-6.33-.85c-9.21,0-15.26,5.12-15.26,11.56s5.31,11.2,14.29,11.2a21.35,21.35,0,0,0,8.07-1.56l-1.19-2.71a17.81,17.81,0,0,1-6.17,1.13"/>
 <rect class="cls-2" x="102.34" y="33.4" width="3.9" height="22.32"/>
 <path class="cls-2" d="M135.3,36.6H125.21V55.73h-3.94V36.6H111.14a3.14,3.14,0,0,1,3.22-3.17h21Z"/>
 <path class="cls-2" d="M85.18,55.73H82L70.59,33.41H75L83.73,50.6c.65-1.17,7.91-14.53,8.28-15.18,1.61-2.79,5.39-2,5.39-2Z"/>
 <path class="cls-2" d="M142.72,39.64c1.15-2.26,4.1-4,7.7-4,4.82,0,8.38,3.19,8.38,6.3H148.06c-.05,0-3.11.1-3.11,3.1h17.91v-.8c0-6.95-4.34-11.53-12.51-11.53-7.64,0-12.79,4.82-12.79,11.29s4.75,12.09,14.66,12.09a20.76,20.76,0,0,0,9.71-2.32l-1.29-2.64a19.7,19.7,0,0,1-7.4,1.74c-5.48.07-9.52-2.39-10.71-5.63a8.73,8.73,0,0,1,.19-7.62"/>
 <path class="cls-2" d="M52.31,36c.9-.9,1.83-1.76,2.8-2.57H47.64c-9.88.4-7.9,8.65-7.44,10.21,0,.08,0,.16.07.25h0c.38,1.19.81,2.36,1.3,3.52.39.93.82,1.84,1.28,2.73,0-.1.08-.21.13-.32A43.28,43.28,0,0,1,52.31,36"/>
 <path class="cls-2" d="M61,33.36a24,24,0,0,0-2.69,1.8l-1,.78-.14.13,0,0c-.86.73-1.7,1.5-2.51,2.31a40.31,40.31,0,0,0-8.62,12.79c-.39.93-.74,1.86-1.06,2.8-.21.61-.4,1.23-.58,1.85h7.89C61,55.78,61,47.19,61,47.19Z"/>
 <path class="cls-2" d="M41.32,54.42a44.92,44.92,0,0,1-2.91-5.7A43.26,43.26,0,0,1,36,41.18c-4.57,10-2.92,14.6,4.08,14.6h2.11c-.3-.45-.58-.91-.86-1.37"/>
</svg>
