<svg xmlns="http://www.w3.org/2000/svg" viewBox="0 0 221.66 66.47"><defs><style>.cls-1{fill:#0c233f;}</style></defs><g id="Layer_2" data-name="Layer 2"><g id="Layer_1-2" data-name="Layer 1"><path class="cls-1" d="M193,17.57a48.15,48.15,0,0,1-3.81,6.22A43.92,43.92,0,0,1,184,29.51c-.95.87-2.71,2.34-3.93,1.14-1.64-1.61-.7-4.42-.22-6.33a41.27,41.27,0,0,1,2.3-6.45c.2-.49.46-1,.67-1.47a3,3,0,0,0-2.21-4.29,19,19,0,0,0-3.35-.35,22.3,22.3,0,0,0-4.24.31,22,22,0,0,0-7.43,2.79,27,27,0,0,0-10,10.92c-1.78,3.48-3.42,8-2.56,11.9.77,3.46,3.54,5.26,7,5l.43,0a19.94,19.94,0,0,0,10.28-5.31c.36-.32,1.19-.38,1.42,0a5.56,5.56,0,0,0,5,2.86c2.49-.08,4.76-1.6,6.62-3.12,1.57-1.28,2.42-2,4.14-3.39.5-.42,1.23-.24,1.28.41,0,.24,0,.48.08.72a6.3,6.3,0,0,0,2.85,4.76,7.63,7.63,0,0,0,5.92.7c3-.69,5.45-2.4,7.85-4.2h0a.74.74,0,0,1,1.13.85c-2.85,7.58-5.89,13.57-12.7,17.68A21,21,0,0,1,180,56.93a17.2,17.2,0,0,1-7-3c-1.91-1.4-3.62-4.77-6.38-3.29C164,52.07,160.9,56.1,162.81,59c4.06,6.2,12.51,8.08,19.48,7.29a32.59,32.59,0,0,0,19.85-10c6.31-6.61,9.57-13.69,12.76-22.17,1.35-3.62,2.88-7.66,4.17-11.3,1.2-3.36,2.59-6.81,2.59-10.2A2.14,2.14,0,0,0,219,10.36a3.64,3.64,0,0,0-.87.36c-1.85,1.07-3.16,3.58-4.11,5.41-2.34,4.49-4,10-8.21,13.2-1.72,1.28-6,4-7.68,1.32a8.06,8.06,0,0,1-.69-5.85,44,44,0,0,1,2.36-7.53c.66-1.67,2.95-5.89.21-6.29a4.45,4.45,0,0,0-3.34,1.43A20.21,20.21,0,0,0,193,17.57ZM168.67,31.12l-.52.43c-1.46,1.16-4.41,2.6-6.17,1.17-5.09-4.13,7.89-15.93,11.65-12.46a2.17,2.17,0,0,1,.53,1.8C173.94,25.36,171.05,29,168.67,31.12Z"/><path class="cls-1" d="M41.36,10.84c1.76.61,3.64,2,5.57,1.86,2.31-.18,4.14-2.18,5.33-4,.71-1.08,2.64-4.9.81-6C38.59-5.57,25.75,6.39,24.57,20c-.69,5.11.79,10.22,2.23,15.07a67.45,67.45,0,0,1,2.14,8,17,17,0,0,1-.62,8.7c-1.36,3.55-5,4.55-8.46,4.43A11.1,11.1,0,0,1,9.45,47.51a27.67,27.67,0,0,1-.62-3.84c-.11-1,0-2.24-1.17-2.67s-3.38.78-4.41,1.56C.85,44.39.3,48.27.07,51.15a16.08,16.08,0,0,0,.55,6A12.35,12.35,0,0,0,7,64.68a17.89,17.89,0,0,0,10.48,1.41,23.39,23.39,0,0,0,11-4.74,24.53,24.53,0,0,0,7.86-10.94A34.18,34.18,0,0,0,37.49,33.2a58.83,58.83,0,0,0-3.66-12.51c-1.1-2.68-1.37-7.08.82-9.35C36.42,9.51,39.23,10.1,41.36,10.84Z"/><path class="cls-1" d="M152.87,19.53a7.38,7.38,0,0,0-4.68-5.25,9.24,9.24,0,0,0-6.33,0A9.94,9.94,0,0,0,138.07,17s0,0,0,0a3.08,3.08,0,0,0-2.31-1.46c-2.15-.11-4.16,1.86-5,4.06-5.13,13.88-9.4,27-14.58,40.86-.7,1.87-1.22,4.69,1.17,5.14s4.33-2.42,5-4.13c2.47-6.51,4.63-13.07,7.09-19.69A4.35,4.35,0,0,0,131.07,44a6.81,6.81,0,0,0,3.78.66c6.66-.56,12.55-5.58,15.73-11.29C152.49,29.9,154,23.8,152.87,19.53ZM132.35,34.1h0A29.28,29.28,0,0,1,136,25c2.84-3.13,6.18-4.7,8.45-2.87a2.71,2.71,0,0,1,.88,1.73C146.38,29.37,135.66,42.45,132.35,34.1Z"/><path class="cls-1" d="M122.53,18.26a136.7,136.7,0,0,0-16,4.89l4.36-12.53a11,11,0,0,0,.94-3.82,2.24,2.24,0,0,0-3.27-2.11c-2.21.83-2.85,3.14-3.91,5.49-1.24,2.8-1.7,4.63-2.68,7.13a18.56,18.56,0,0,1-5.64,7.51,20.8,20.8,0,0,1-7.15,4c-.67.23-4.81,1-4.17-.74.5-1.32,1.45-4.14,1.95-5.47h0a24.56,24.56,0,0,0,8-8.53c1.41-2.41,2.57-5.64,1.61-8.41A3.83,3.83,0,0,0,92.4,3.1c-2,.38-3.83,2-5.09,3.51-2.24,2.7-3.07,5.81-4.49,9.45-1.67,4.28-3,5.6-5.62,7a21.09,21.09,0,0,1-5.85,2.05c-2.52.49-4,0-5.19-2.41h0c-3.72-6.37-12.5-2.06-16.52,1.65a27.27,27.27,0,0,0-6.58,9.44C40.8,39.18,39.15,49,46.82,50.65c9.83,2.16,16.08-7.32,19-14.38a28,28,0,0,0,1.06-3c.1-.33.32-.7.67-.7,4.07.08,6.86-1.24,10.44-2.95,0,0-7.82,22.35-10.33,29.07-.49,1.3-.68,1.69-1.09,3-.47,1.52-.3,2.78.58,3.52,1.26,1.06,3.64-.1,4.48-1.22a32,32,0,0,0,3-6.64l7.39-20.9h0a17.17,17.17,0,0,0,2.32.59A13.45,13.45,0,0,0,91.21,36a18.07,18.07,0,0,0,3-1.56c.2-.13,2.43-1.44,2.43-1.47v0l-2.91,8c-.9,2.64-1.31,5.12.13,7a5.26,5.26,0,0,0,3.47,1.85c5,.72,10.07-1.25,14.23-3.82,3.85-2.37,8.81-7,9.25-10.69.12-1,0-2.29-1.2-2.37a1.67,1.67,0,0,0-.79.16c-2.23.93-3.73,2.9-5.66,4.27-2.83,2-7,4-10.61,3.41a1.59,1.59,0,0,1-1.38-1,4.31,4.31,0,0,1,.35-2.46c.81-2.38,1.54-4.73,2.45-6.72,3.3-1.95,8.31-2.49,11.91-2.85,1.93-.2,3.32,0,5.14-.76s3.38-3.1,3.92-5S125.1,17.69,122.53,18.26ZM56.67,41l.07-.08C56.69,41,56.66,41,56.67,41Zm1.92-4.46c-1.69,3.67-5,4.63-6.92,3.56S49,36.5,51.35,32.5s5.6-5.21,7.09-4.45C60.12,28.92,60.26,32.87,58.59,36.51Z"/></g></g></svg>